<svg width="1600" height="1000" viewBox="0 0 1600 1000" fill="none" xmlns="http://www.w3.org/2000/svg">
<g clip-path="url(#clip0_2314_2)">
<rect width="1600" height="1000" rx="18" fill="white"/>
<rect width="1600" height="900" fill="url(#paint0_linear_2314_2)"/>
<mask id="mask0_2314_2" style="mask-type:alpha" maskUnits="userSpaceOnUse" x="0" y="0" width="1600" height="900">
<rect width="1600" height="900" fill="#2B69FA"/>
</mask>
<g mask="url(#mask0_2314_2)">
<g opacity="0.11">
<path d="M-47.1406 838.677L-47.1406 900.455L9.30274 900.455L9.30274 838.677L-47.1406 838.677Z" stroke="#2B69FA" stroke-width="0.5" stroke-miterlimit="10"/>
<path d="M-47.1406 776.899L-47.1406 838.677L9.30274 838.677L9.30274 776.899L-47.1406 776.899Z" stroke="#2B69FA" stroke-width="0.5" stroke-miterlimit="10"/>
<path d="M-47.1406 715.151L-47.1406 776.929L9.30274 776.929L9.30274 715.151L-47.1406 715.151Z" stroke="#2B69FA" stroke-width="0.5" stroke-miterlimit="10"/>
<path d="M-47.1406 653.373L-47.1406 715.151L9.30274 715.151L9.30274 653.373L-47.1406 653.373Z" stroke="#2B69FA" stroke-width="0.5" stroke-miterlimit="10"/>
<path d="M-47.1406 591.625L-47.1406 653.403L9.30274 653.403L9.30274 591.625L-47.1406 591.625Z" stroke="#2B69FA" stroke-width="0.5" stroke-miterlimit="10"/>
<path d="M-47.1406 529.848L-47.1406 591.625L9.30274 591.625L9.30274 529.848L-47.1406 529.848Z" stroke="#2B69FA" stroke-width="0.5" stroke-miterlimit="10"/>
<path d="M-47.1406 468.1L-47.1406 529.877L9.30274 529.877L9.30274 468.1L-47.1406 468.1Z" stroke="#2B69FA" stroke-width="0.5" stroke-miterlimit="10"/>
<path d="M-47.1406 406.322L-47.1406 468.1L9.30274 468.1L9.30274 406.322L-47.1406 406.322Z" stroke="#2B69FA" stroke-width="0.5" stroke-miterlimit="10"/>
<path d="M-47.1406 344.544L-47.1406 406.322L9.30274 406.322L9.30274 344.544L-47.1406 344.544Z" stroke="#2B69FA" stroke-width="0.5" stroke-miterlimit="10"/>
<path d="M-47.1406 282.796L-47.1406 344.574L9.30274 344.574L9.30274 282.796L-47.1406 282.796Z" stroke="#2B69FA" stroke-width="0.5" stroke-miterlimit="10"/>
<path d="M-47.1406 221.019L-47.1406 282.796L9.30274 282.796L9.30274 221.019L-47.1406 221.019Z" stroke="#2B69FA" stroke-width="0.5" stroke-miterlimit="10"/>
<path d="M-47.1406 159.271L-47.1406 221.048L9.30274 221.048L9.30274 159.271L-47.1406 159.271Z" stroke="#2B69FA" stroke-width="0.5" stroke-miterlimit="10"/>
<path d="M-47.1406 97.4929L-47.1406 159.271L9.30274 159.271L9.30274 97.4929L-47.1406 97.4929Z" stroke="#2B69FA" stroke-width="0.5" stroke-miterlimit="10"/>
<path d="M-47.1406 35.745L-47.1406 97.5227L9.30274 97.5227L9.30274 35.745L-47.1406 35.745Z" stroke="#2B69FA" stroke-width="0.5" stroke-miterlimit="10"/>
<path d="M-47.1406 -26.0329L-47.1406 35.7449L9.30274 35.7449L9.30274 -26.0329L-47.1406 -26.0329Z" stroke="#2B69FA" stroke-width="0.5" stroke-miterlimit="10"/>
<path d="M9.30469 838.677L9.30469 900.455L65.7481 900.455L65.7481 838.677L9.30469 838.677Z" stroke="#2B69FA" stroke-width="0.5" stroke-miterlimit="10"/>
<path d="M9.30469 776.899L9.30469 838.677L65.7481 838.677L65.7481 776.899L9.30469 776.899Z" stroke="#2B69FA" stroke-width="0.5" stroke-miterlimit="10"/>
<path d="M9.30469 715.151L9.30469 776.929L65.7481 776.929L65.7481 715.151L9.30469 715.151Z" stroke="#2B69FA" stroke-width="0.5" stroke-miterlimit="10"/>
<path d="M9.30469 653.373L9.30469 715.151L65.7481 715.151L65.7481 653.373L9.30469 653.373Z" stroke="#2B69FA" stroke-width="0.5" stroke-miterlimit="10"/>
<path d="M9.30469 591.625L9.30469 653.403L65.7481 653.403L65.7481 591.625L9.30469 591.625Z" stroke="#2B69FA" stroke-width="0.5" stroke-miterlimit="10"/>
<path d="M9.30469 529.848L9.30469 591.625L65.7481 591.625L65.7481 529.848L9.30469 529.848Z" stroke="#2B69FA" stroke-width="0.5" stroke-miterlimit="10"/>
<path d="M9.30469 468.1L9.30469 529.877L65.7481 529.877L65.7481 468.1L9.30469 468.1Z" stroke="#2B69FA" stroke-width="0.5" stroke-miterlimit="10"/>
<path d="M9.30469 406.322L9.30469 468.1L65.7481 468.1L65.7481 406.322L9.30469 406.322Z" stroke="#2B69FA" stroke-width="0.5" stroke-miterlimit="10"/>
<path d="M9.30469 344.544L9.30469 406.322L65.7481 406.322L65.7481 344.544L9.30469 344.544Z" stroke="#2B69FA" stroke-width="0.5" stroke-miterlimit="10"/>
<path d="M9.30469 282.796L9.30469 344.574L65.7481 344.574L65.7481 282.796L9.30469 282.796Z" stroke="#2B69FA" stroke-width="0.5" stroke-miterlimit="10"/>
<path d="M9.30469 221.019L9.30469 282.796L65.7481 282.796L65.7481 221.019L9.30469 221.019Z" stroke="#2B69FA" stroke-width="0.5" stroke-miterlimit="10"/>
<path d="M9.30469 159.271L9.30469 221.048L65.7481 221.048L65.7481 159.271L9.30469 159.271Z" stroke="#2B69FA" stroke-width="0.5" stroke-miterlimit="10"/>
<path d="M9.30469 97.4929L9.30469 159.271L65.7481 159.271L65.7481 97.4929L9.30469 97.4929Z" stroke="#2B69FA" stroke-width="0.5" stroke-miterlimit="10"/>
<path d="M9.30469 35.745L9.30469 97.5227L65.7481 97.5227L65.7481 35.745L9.30469 35.745Z" stroke="#2B69FA" stroke-width="0.5" stroke-miterlimit="10"/>
<path d="M9.30469 -26.0329L9.30469 35.7449L65.7481 35.7449L65.7481 -26.0329L9.30469 -26.0329Z" stroke="#2B69FA" stroke-width="0.5" stroke-miterlimit="10"/>
<path d="M65.7187 838.677L65.7188 900.455L122.162 900.455L122.162 838.677L65.7187 838.677Z" stroke="#2B69FA" stroke-width="0.5" stroke-miterlimit="10"/>
<path d="M65.7187 776.899L65.7188 838.677L122.162 838.677L122.162 776.899L65.7187 776.899Z" stroke="#2B69FA" stroke-width="0.5" stroke-miterlimit="10"/>
<path d="M65.7187 715.151L65.7188 776.929L122.162 776.929L122.162 715.151L65.7187 715.151Z" stroke="#2B69FA" stroke-width="0.5" stroke-miterlimit="10"/>
<path d="M65.7187 653.373L65.7188 715.151L122.162 715.151L122.162 653.373L65.7187 653.373Z" stroke="#2B69FA" stroke-width="0.5" stroke-miterlimit="10"/>
<path d="M65.7187 591.625L65.7188 653.403L122.162 653.403L122.162 591.625L65.7187 591.625Z" stroke="#2B69FA" stroke-width="0.5" stroke-miterlimit="10"/>
<path d="M65.7187 529.848L65.7188 591.625L122.162 591.625L122.162 529.848L65.7187 529.848Z" stroke="#2B69FA" stroke-width="0.5" stroke-miterlimit="10"/>
<path d="M65.7187 468.1L65.7188 529.877L122.162 529.877L122.162 468.1L65.7187 468.1Z" stroke="#2B69FA" stroke-width="0.5" stroke-miterlimit="10"/>
<path d="M65.7187 406.322L65.7188 468.1L122.162 468.1L122.162 406.322L65.7187 406.322Z" stroke="#2B69FA" stroke-width="0.5" stroke-miterlimit="10"/>
<path d="M65.7187 344.544L65.7188 406.322L122.162 406.322L122.162 344.544L65.7187 344.544Z" stroke="#2B69FA" stroke-width="0.5" stroke-miterlimit="10"/>
<path d="M65.7187 282.796L65.7188 344.574L122.162 344.574L122.162 282.796L65.7187 282.796Z" stroke="#2B69FA" stroke-width="0.5" stroke-miterlimit="10"/>
<path d="M65.7187 221.019L65.7188 282.796L122.162 282.796L122.162 221.019L65.7187 221.019Z" stroke="#2B69FA" stroke-width="0.5" stroke-miterlimit="10"/>
<path d="M65.7187 159.271L65.7188 221.048L122.162 221.048L122.162 159.271L65.7187 159.271Z" stroke="#2B69FA" stroke-width="0.5" stroke-miterlimit="10"/>
<path d="M65.7187 97.4929L65.7188 159.271L122.162 159.271L122.162 97.4929L65.7187 97.4929Z" stroke="#2B69FA" stroke-width="0.5" stroke-miterlimit="10"/>
<path d="M65.7187 35.745L65.7188 97.5227L122.162 97.5227L122.162 35.745L65.7187 35.745Z" stroke="#2B69FA" stroke-width="0.5" stroke-miterlimit="10"/>
<path d="M65.7187 -26.0329L65.7188 35.7449L122.162 35.7449L122.162 -26.0329L65.7187 -26.0329Z" stroke="#2B69FA" stroke-width="0.5" stroke-miterlimit="10"/>
<path d="M122.164 838.677L122.164 900.455L178.607 900.455L178.607 838.677L122.164 838.677Z" stroke="#2B69FA" stroke-width="0.5" stroke-miterlimit="10"/>
<path d="M122.164 776.899L122.164 838.677L178.607 838.677L178.607 776.899L122.164 776.899Z" stroke="#2B69FA" stroke-width="0.5" stroke-miterlimit="10"/>
<path d="M122.164 715.151L122.164 776.929L178.607 776.929L178.607 715.151L122.164 715.151Z" stroke="#2B69FA" stroke-width="0.5" stroke-miterlimit="10"/>
<path d="M122.16 653.373L122.16 715.151L178.604 715.151L178.604 653.373L122.16 653.373Z" stroke="#2B69FA" stroke-width="0.5" stroke-miterlimit="10"/>
<path d="M122.16 591.625L122.16 653.403L178.604 653.403L178.604 591.625L122.16 591.625Z" stroke="#2B69FA" stroke-width="0.5" stroke-miterlimit="10"/>
<path d="M122.16 529.848L122.16 591.625L178.604 591.625L178.604 529.848L122.16 529.848Z" stroke="#2B69FA" stroke-width="0.5" stroke-miterlimit="10"/>
<path d="M122.16 468.1L122.16 529.877L178.604 529.877L178.604 468.1L122.16 468.1Z" stroke="#2B69FA" stroke-width="0.5" stroke-miterlimit="10"/>
<path d="M122.16 406.322L122.16 468.1L178.604 468.1L178.604 406.322L122.16 406.322Z" stroke="#2B69FA" stroke-width="0.5" stroke-miterlimit="10"/>
<path d="M122.16 344.544L122.16 406.322L178.604 406.322L178.604 344.544L122.16 344.544Z" stroke="#2B69FA" stroke-width="0.5" stroke-miterlimit="10"/>
<path d="M122.164 282.796L122.164 344.574L178.607 344.574L178.607 282.796L122.164 282.796Z" stroke="#2B69FA" stroke-width="0.5" stroke-miterlimit="10"/>
<path d="M122.164 221.019L122.164 282.796L178.607 282.796L178.607 221.019L122.164 221.019Z" stroke="#2B69FA" stroke-width="0.5" stroke-miterlimit="10"/>
<path d="M122.164 159.271L122.164 221.048L178.607 221.048L178.607 159.271L122.164 159.271Z" stroke="#2B69FA" stroke-width="0.5" stroke-miterlimit="10"/>
<path d="M122.164 97.4929L122.164 159.271L178.607 159.271L178.607 97.4929L122.164 97.4929Z" stroke="#2B69FA" stroke-width="0.5" stroke-miterlimit="10"/>
<path d="M122.164 35.745L122.164 97.5227L178.607 97.5227L178.607 35.745L122.164 35.745Z" stroke="#2B69FA" stroke-width="0.5" stroke-miterlimit="10"/>
<path d="M122.164 -26.0329L122.164 35.7449L178.607 35.7449L178.607 -26.0329L122.164 -26.0329Z" stroke="#2B69FA" stroke-width="0.5" stroke-miterlimit="10"/>
<path d="M178.578 838.677L178.578 900.455L235.021 900.455L235.021 838.677L178.578 838.677Z" stroke="#2B69FA" stroke-width="0.5" stroke-miterlimit="10"/>
<path d="M178.578 776.899L178.578 838.677L235.021 838.677L235.021 776.899L178.578 776.899Z" stroke="#2B69FA" stroke-width="0.5" stroke-miterlimit="10"/>
<path d="M178.578 715.151L178.578 776.929L235.021 776.929L235.021 715.151L178.578 715.151Z" stroke="#2B69FA" stroke-width="0.5" stroke-miterlimit="10"/>
<path d="M178.578 653.373L178.578 715.151L235.021 715.151L235.021 653.373L178.578 653.373Z" stroke="#2B69FA" stroke-width="0.5" stroke-miterlimit="10"/>
<path d="M178.578 591.625L178.578 653.403L235.021 653.403L235.021 591.625L178.578 591.625Z" stroke="#2B69FA" stroke-width="0.5" stroke-miterlimit="10"/>
<path d="M178.578 529.848L178.578 591.625L235.021 591.625L235.021 529.848L178.578 529.848Z" stroke="#2B69FA" stroke-width="0.5" stroke-miterlimit="10"/>
<path d="M178.578 468.1L178.578 529.877L235.021 529.877L235.021 468.1L178.578 468.1Z" stroke="#2B69FA" stroke-width="0.5" stroke-miterlimit="10"/>
<path d="M178.578 406.322L178.578 468.1L235.021 468.1L235.021 406.322L178.578 406.322Z" stroke="#2B69FA" stroke-width="0.5" stroke-miterlimit="10"/>
<path d="M178.578 344.544L178.578 406.322L235.021 406.322L235.021 344.544L178.578 344.544Z" stroke="#2B69FA" stroke-width="0.5" stroke-miterlimit="10"/>
<path d="M178.578 282.796L178.578 344.574L235.021 344.574L235.021 282.796L178.578 282.796Z" stroke="#2B69FA" stroke-width="0.5" stroke-miterlimit="10"/>
<path d="M178.578 221.019L178.578 282.796L235.021 282.796L235.021 221.019L178.578 221.019Z" stroke="#2B69FA" stroke-width="0.5" stroke-miterlimit="10"/>
<path d="M178.578 159.271L178.578 221.048L235.021 221.048L235.021 159.271L178.578 159.271Z" stroke="#2B69FA" stroke-width="0.5" stroke-miterlimit="10"/>
<path d="M178.578 97.4929L178.578 159.271L235.021 159.271L235.021 97.4929L178.578 97.4929Z" stroke="#2B69FA" stroke-width="0.5" stroke-miterlimit="10"/>
<path d="M178.578 35.745L178.578 97.5227L235.021 97.5227L235.021 35.745L178.578 35.745Z" stroke="#2B69FA" stroke-width="0.5" stroke-miterlimit="10"/>
<path d="M178.578 -26.0329L178.578 35.7449L235.021 35.7449L235.021 -26.0329L178.578 -26.0329Z" stroke="#2B69FA" stroke-width="0.5" stroke-miterlimit="10"/>
<path d="M235.023 838.677L235.023 900.455L291.467 900.455L291.467 838.677L235.023 838.677Z" stroke="#2B69FA" stroke-width="0.5" stroke-miterlimit="10"/>
<path d="M235.023 776.899L235.023 838.677L291.467 838.677L291.467 776.899L235.023 776.899Z" stroke="#2B69FA" stroke-width="0.5" stroke-miterlimit="10"/>
<path d="M235.023 715.151L235.023 776.929L291.467 776.929L291.467 715.151L235.023 715.151Z" stroke="#2B69FA" stroke-width="0.5" stroke-miterlimit="10"/>
<path d="M235.02 653.373L235.02 715.151L291.463 715.151L291.463 653.373L235.02 653.373Z" stroke="#2B69FA" stroke-width="0.5" stroke-miterlimit="10"/>
<path d="M235.02 591.625L235.02 653.403L291.463 653.403L291.463 591.625L235.02 591.625Z" stroke="#2B69FA" stroke-width="0.5" stroke-miterlimit="10"/>
<path d="M235.02 529.848L235.02 591.625L291.463 591.625L291.463 529.848L235.02 529.848Z" stroke="#2B69FA" stroke-width="0.5" stroke-miterlimit="10"/>
<path d="M235.02 468.1L235.02 529.877L291.463 529.877L291.463 468.1L235.02 468.1Z" stroke="#2B69FA" stroke-width="0.5" stroke-miterlimit="10"/>
<path d="M235.02 406.322L235.02 468.1L291.463 468.1L291.463 406.322L235.02 406.322Z" stroke="#2B69FA" stroke-width="0.5" stroke-miterlimit="10"/>
<path d="M235.02 344.544L235.02 406.322L291.463 406.322L291.463 344.544L235.02 344.544Z" stroke="#2B69FA" stroke-width="0.5" stroke-miterlimit="10"/>
<path d="M235.023 282.796L235.023 344.574L291.467 344.574L291.467 282.796L235.023 282.796Z" stroke="#2B69FA" stroke-width="0.5" stroke-miterlimit="10"/>
<path d="M235.023 221.019L235.023 282.796L291.467 282.796L291.467 221.019L235.023 221.019Z" stroke="#2B69FA" stroke-width="0.5" stroke-miterlimit="10"/>
<path d="M235.023 159.271L235.023 221.048L291.467 221.048L291.467 159.271L235.023 159.271Z" stroke="#2B69FA" stroke-width="0.5" stroke-miterlimit="10"/>
<path d="M235.023 97.4929L235.023 159.271L291.467 159.271L291.467 97.4929L235.023 97.4929Z" stroke="#2B69FA" stroke-width="0.5" stroke-miterlimit="10"/>
<path d="M235.023 35.745L235.023 97.5227L291.467 97.5227L291.467 35.745L235.023 35.745Z" stroke="#2B69FA" stroke-width="0.5" stroke-miterlimit="10"/>
<path d="M235.023 -26.0329L235.023 35.7449L291.467 35.7449L291.467 -26.0329L235.023 -26.0329Z" stroke="#2B69FA" stroke-width="0.5" stroke-miterlimit="10"/>
<path d="M291.441 838.677L291.441 900.455L347.885 900.455L347.885 838.677L291.441 838.677Z" stroke="#2B69FA" stroke-width="0.5" stroke-miterlimit="10"/>
<path d="M291.441 776.899L291.441 838.677L347.885 838.677L347.885 776.899L291.441 776.899Z" stroke="#2B69FA" stroke-width="0.5" stroke-miterlimit="10"/>
<path d="M291.441 715.151L291.441 776.929L347.885 776.929L347.885 715.151L291.441 715.151Z" stroke="#2B69FA" stroke-width="0.5" stroke-miterlimit="10"/>
<path d="M291.437 653.373L291.438 715.151L347.881 715.151L347.881 653.373L291.437 653.373Z" stroke="#2B69FA" stroke-width="0.5" stroke-miterlimit="10"/>
<path d="M291.437 591.625L291.438 653.403L347.881 653.403L347.881 591.625L291.437 591.625Z" stroke="#2B69FA" stroke-width="0.5" stroke-miterlimit="10"/>
<path d="M291.437 529.848L291.438 591.625L347.881 591.625L347.881 529.848L291.437 529.848Z" stroke="#2B69FA" stroke-width="0.5" stroke-miterlimit="10"/>
<path d="M291.437 468.1L291.438 529.877L347.881 529.877L347.881 468.1L291.437 468.1Z" stroke="#2B69FA" stroke-width="0.5" stroke-miterlimit="10"/>
<path d="M291.437 406.322L291.438 468.1L347.881 468.1L347.881 406.322L291.437 406.322Z" stroke="#2B69FA" stroke-width="0.5" stroke-miterlimit="10"/>
<path d="M291.437 344.544L291.438 406.322L347.881 406.322L347.881 344.544L291.437 344.544Z" stroke="#2B69FA" stroke-width="0.5" stroke-miterlimit="10"/>
<path d="M291.441 282.796L291.441 344.574L347.885 344.574L347.885 282.796L291.441 282.796Z" stroke="#2B69FA" stroke-width="0.5" stroke-miterlimit="10"/>
<path d="M291.441 221.019L291.441 282.796L347.885 282.796L347.885 221.019L291.441 221.019Z" stroke="#2B69FA" stroke-width="0.5" stroke-miterlimit="10"/>
<path d="M291.441 159.271L291.441 221.048L347.885 221.048L347.885 159.271L291.441 159.271Z" stroke="#2B69FA" stroke-width="0.5" stroke-miterlimit="10"/>
<path d="M291.441 97.4929L291.441 159.271L347.885 159.271L347.885 97.4929L291.441 97.4929Z" stroke="#2B69FA" stroke-width="0.5" stroke-miterlimit="10"/>
<path d="M291.441 35.745L291.441 97.5227L347.885 97.5227L347.885 35.745L291.441 35.745Z" stroke="#2B69FA" stroke-width="0.5" stroke-miterlimit="10"/>
<path d="M291.441 -26.0329L291.441 35.7449L347.885 35.7449L347.885 -26.0329L291.441 -26.0329Z" stroke="#2B69FA" stroke-width="0.5" stroke-miterlimit="10"/>
<path d="M347.883 838.677L347.883 900.455L404.326 900.455L404.326 838.677L347.883 838.677Z" stroke="#2B69FA" stroke-width="0.5" stroke-miterlimit="10"/>
<path d="M347.883 776.899L347.883 838.677L404.326 838.677L404.326 776.899L347.883 776.899Z" stroke="#2B69FA" stroke-width="0.5" stroke-miterlimit="10"/>
<path d="M347.883 715.151L347.883 776.929L404.326 776.929L404.326 715.151L347.883 715.151Z" stroke="#2B69FA" stroke-width="0.5" stroke-miterlimit="10"/>
<path d="M347.879 653.373L347.879 715.151L404.322 715.151L404.322 653.373L347.879 653.373Z" stroke="#2B69FA" stroke-width="0.5" stroke-miterlimit="10"/>
<path d="M347.879 591.625L347.879 653.403L404.322 653.403L404.322 591.625L347.879 591.625Z" stroke="#2B69FA" stroke-width="0.5" stroke-miterlimit="10"/>
<path d="M347.879 529.848L347.879 591.625L404.322 591.625L404.322 529.848L347.879 529.848Z" stroke="#2B69FA" stroke-width="0.5" stroke-miterlimit="10"/>
<path d="M347.879 468.1L347.879 529.877L404.322 529.877L404.322 468.1L347.879 468.1Z" stroke="#2B69FA" stroke-width="0.5" stroke-miterlimit="10"/>
<path d="M347.879 406.322L347.879 468.1L404.322 468.1L404.322 406.322L347.879 406.322Z" stroke="#2B69FA" stroke-width="0.5" stroke-miterlimit="10"/>
<path d="M347.879 344.544L347.879 406.322L404.322 406.322L404.322 344.544L347.879 344.544Z" stroke="#2B69FA" stroke-width="0.5" stroke-miterlimit="10"/>
<path d="M347.883 282.796L347.883 344.574L404.326 344.574L404.326 282.796L347.883 282.796Z" stroke="#2B69FA" stroke-width="0.5" stroke-miterlimit="10"/>
<path d="M347.883 221.019L347.883 282.796L404.326 282.796L404.326 221.019L347.883 221.019Z" stroke="#2B69FA" stroke-width="0.5" stroke-miterlimit="10"/>
<path d="M347.883 159.271L347.883 221.048L404.326 221.048L404.326 159.271L347.883 159.271Z" stroke="#2B69FA" stroke-width="0.5" stroke-miterlimit="10"/>
<path d="M347.883 97.4929L347.883 159.271L404.326 159.271L404.326 97.4929L347.883 97.4929Z" stroke="#2B69FA" stroke-width="0.5" stroke-miterlimit="10"/>
<path d="M347.883 35.745L347.883 97.5227L404.326 97.5227L404.326 35.745L347.883 35.745Z" stroke="#2B69FA" stroke-width="0.5" stroke-miterlimit="10"/>
<path d="M347.883 -26.0329L347.883 35.7449L404.326 35.7449L404.326 -26.0329L347.883 -26.0329Z" stroke="#2B69FA" stroke-width="0.5" stroke-miterlimit="10"/>
<path d="M404.297 838.677L404.297 900.455L460.74 900.455L460.74 838.677L404.297 838.677Z" stroke="#2B69FA" stroke-width="0.5" stroke-miterlimit="10"/>
<path d="M404.297 776.899L404.297 838.677L460.74 838.677L460.74 776.899L404.297 776.899Z" stroke="#2B69FA" stroke-width="0.5" stroke-miterlimit="10"/>
<path d="M404.297 715.151L404.297 776.929L460.74 776.929L460.74 715.151L404.297 715.151Z" stroke="#2B69FA" stroke-width="0.5" stroke-miterlimit="10"/>
<path d="M404.301 653.373L404.301 715.151L460.744 715.151L460.744 653.373L404.301 653.373Z" stroke="#2B69FA" stroke-width="0.5" stroke-miterlimit="10"/>
<path d="M404.301 591.625L404.301 653.403L460.744 653.403L460.744 591.625L404.301 591.625Z" stroke="#2B69FA" stroke-width="0.5" stroke-miterlimit="10"/>
<path d="M404.301 529.848L404.301 591.625L460.744 591.625L460.744 529.848L404.301 529.848Z" stroke="#2B69FA" stroke-width="0.5" stroke-miterlimit="10"/>
<path d="M404.301 468.1L404.301 529.877L460.744 529.877L460.744 468.1L404.301 468.1Z" stroke="#2B69FA" stroke-width="0.5" stroke-miterlimit="10"/>
<path d="M404.301 406.322L404.301 468.1L460.744 468.1L460.744 406.322L404.301 406.322Z" stroke="#2B69FA" stroke-width="0.5" stroke-miterlimit="10"/>
<path d="M404.301 344.544L404.301 406.322L460.744 406.322L460.744 344.544L404.301 344.544Z" stroke="#2B69FA" stroke-width="0.5" stroke-miterlimit="10"/>
<path d="M404.301 282.796L404.301 344.574L460.744 344.574L460.744 282.796L404.301 282.796Z" stroke="#2B69FA" stroke-width="0.5" stroke-miterlimit="10"/>
<path d="M404.301 221.019L404.301 282.796L460.744 282.796L460.744 221.019L404.301 221.019Z" stroke="#2B69FA" stroke-width="0.5" stroke-miterlimit="10"/>
<path d="M404.301 159.271L404.301 221.048L460.744 221.048L460.744 159.271L404.301 159.271Z" stroke="#2B69FA" stroke-width="0.5" stroke-miterlimit="10"/>
<path d="M404.301 97.4929L404.301 159.271L460.744 159.271L460.744 97.4929L404.301 97.4929Z" stroke="#2B69FA" stroke-width="0.5" stroke-miterlimit="10"/>
<path d="M404.301 35.745L404.301 97.5227L460.744 97.5227L460.744 35.745L404.301 35.745Z" stroke="#2B69FA" stroke-width="0.5" stroke-miterlimit="10"/>
<path d="M404.301 -26.0328L404.301 35.745L460.744 35.745L460.744 -26.0328L404.301 -26.0328Z" stroke="#2B69FA" stroke-width="0.5" stroke-miterlimit="10"/>
<path d="M460.738 838.677L460.738 900.455L517.182 900.455L517.182 838.677L460.738 838.677Z" stroke="#2B69FA" stroke-width="0.5" stroke-miterlimit="10"/>
<path d="M460.738 776.899L460.738 838.677L517.182 838.677L517.182 776.899L460.738 776.899Z" stroke="#2B69FA" stroke-width="0.5" stroke-miterlimit="10"/>
<path d="M460.738 715.151L460.738 776.929L517.182 776.929L517.182 715.151L460.738 715.151Z" stroke="#2B69FA" stroke-width="0.5" stroke-miterlimit="10"/>
<path d="M460.742 653.373L460.742 715.151L517.186 715.151L517.186 653.373L460.742 653.373Z" stroke="#2B69FA" stroke-width="0.5" stroke-miterlimit="10"/>
<path d="M460.742 591.625L460.742 653.403L517.186 653.403L517.186 591.625L460.742 591.625Z" stroke="#2B69FA" stroke-width="0.5" stroke-miterlimit="10"/>
<path d="M460.742 529.848L460.742 591.625L517.186 591.625L517.186 529.848L460.742 529.848Z" stroke="#2B69FA" stroke-width="0.5" stroke-miterlimit="10"/>
<path d="M460.742 468.1L460.742 529.877L517.186 529.877L517.186 468.1L460.742 468.1Z" stroke="#2B69FA" stroke-width="0.5" stroke-miterlimit="10"/>
<path d="M460.742 406.322L460.742 468.1L517.186 468.1L517.186 406.322L460.742 406.322Z" stroke="#2B69FA" stroke-width="0.5" stroke-miterlimit="10"/>
<path d="M460.742 344.544L460.742 406.322L517.186 406.322L517.186 344.544L460.742 344.544Z" stroke="#2B69FA" stroke-width="0.5" stroke-miterlimit="10"/>
<path d="M460.742 282.796L460.742 344.574L517.186 344.574L517.186 282.796L460.742 282.796Z" stroke="#2B69FA" stroke-width="0.5" stroke-miterlimit="10"/>
<path d="M460.742 221.019L460.742 282.796L517.186 282.796L517.186 221.019L460.742 221.019Z" stroke="#2B69FA" stroke-width="0.5" stroke-miterlimit="10"/>
<path d="M460.742 159.271L460.742 221.048L517.186 221.048L517.186 159.271L460.742 159.271Z" stroke="#2B69FA" stroke-width="0.5" stroke-miterlimit="10"/>
<path d="M460.742 97.4929L460.742 159.271L517.186 159.271L517.186 97.4929L460.742 97.4929Z" stroke="#2B69FA" stroke-width="0.5" stroke-miterlimit="10"/>
<path d="M460.742 35.745L460.742 97.5227L517.186 97.5227L517.186 35.745L460.742 35.745Z" stroke="#2B69FA" stroke-width="0.5" stroke-miterlimit="10"/>
<path d="M460.742 -26.0328L460.742 35.745L517.186 35.745L517.186 -26.0328L460.742 -26.0328Z" stroke="#2B69FA" stroke-width="0.5" stroke-miterlimit="10"/>
<path d="M517.156 838.677L517.156 900.455L573.6 900.455L573.6 838.677L517.156 838.677Z" stroke="#2B69FA" stroke-width="0.5" stroke-miterlimit="10"/>
<path d="M517.156 776.899L517.156 838.677L573.6 838.677L573.6 776.899L517.156 776.899Z" stroke="#2B69FA" stroke-width="0.5" stroke-miterlimit="10"/>
<path d="M517.156 715.151L517.156 776.929L573.6 776.929L573.6 715.151L517.156 715.151Z" stroke="#2B69FA" stroke-width="0.5" stroke-miterlimit="10"/>
<path d="M517.156 653.373L517.156 715.151L573.6 715.151L573.6 653.373L517.156 653.373Z" stroke="#2B69FA" stroke-width="0.5" stroke-miterlimit="10"/>
<path d="M517.156 591.625L517.156 653.403L573.6 653.403L573.6 591.625L517.156 591.625Z" stroke="#2B69FA" stroke-width="0.5" stroke-miterlimit="10"/>
<path d="M517.156 529.848L517.156 591.625L573.6 591.625L573.6 529.848L517.156 529.848Z" stroke="#2B69FA" stroke-width="0.5" stroke-miterlimit="10"/>
<path d="M517.156 468.1L517.156 529.877L573.6 529.877L573.6 468.1L517.156 468.1Z" stroke="#2B69FA" stroke-width="0.5" stroke-miterlimit="10"/>
<path d="M517.156 406.322L517.156 468.1L573.6 468.1L573.6 406.322L517.156 406.322Z" stroke="#2B69FA" stroke-width="0.5" stroke-miterlimit="10"/>
<path d="M517.156 344.544L517.156 406.322L573.6 406.322L573.6 344.544L517.156 344.544Z" stroke="#2B69FA" stroke-width="0.5" stroke-miterlimit="10"/>
<path d="M517.156 282.796L517.156 344.574L573.6 344.574L573.6 282.796L517.156 282.796Z" stroke="#2B69FA" stroke-width="0.5" stroke-miterlimit="10"/>
<path d="M517.156 221.019L517.156 282.796L573.6 282.796L573.6 221.019L517.156 221.019Z" stroke="#2B69FA" stroke-width="0.5" stroke-miterlimit="10"/>
<path d="M517.156 159.271L517.156 221.048L573.6 221.048L573.6 159.271L517.156 159.271Z" stroke="#2B69FA" stroke-width="0.5" stroke-miterlimit="10"/>
<path d="M517.156 97.4929L517.156 159.271L573.6 159.271L573.6 97.4929L517.156 97.4929Z" stroke="#2B69FA" stroke-width="0.5" stroke-miterlimit="10"/>
<path d="M517.156 35.745L517.156 97.5227L573.6 97.5227L573.6 35.745L517.156 35.745Z" stroke="#2B69FA" stroke-width="0.5" stroke-miterlimit="10"/>
<path d="M517.156 -26.0328L517.156 35.745L573.6 35.745L573.6 -26.0328L517.156 -26.0328Z" stroke="#2B69FA" stroke-width="0.5" stroke-miterlimit="10"/>
<path d="M573.598 838.677L573.598 900.455L630.041 900.455L630.041 838.677L573.598 838.677Z" stroke="#2B69FA" stroke-width="0.5" stroke-miterlimit="10"/>
<path d="M573.598 776.899L573.598 838.677L630.041 838.677L630.041 776.899L573.598 776.899Z" stroke="#2B69FA" stroke-width="0.5" stroke-miterlimit="10"/>
<path d="M573.598 715.151L573.598 776.929L630.041 776.929L630.041 715.151L573.598 715.151Z" stroke="#2B69FA" stroke-width="0.5" stroke-miterlimit="10"/>
<path d="M573.602 653.373L573.602 715.151L630.045 715.151L630.045 653.373L573.602 653.373Z" stroke="#2B69FA" stroke-width="0.5" stroke-miterlimit="10"/>
<path d="M573.602 591.625L573.602 653.403L630.045 653.403L630.045 591.625L573.602 591.625Z" stroke="#2B69FA" stroke-width="0.5" stroke-miterlimit="10"/>
<path d="M573.602 529.848L573.602 591.625L630.045 591.625L630.045 529.848L573.602 529.848Z" stroke="#2B69FA" stroke-width="0.5" stroke-miterlimit="10"/>
<path d="M573.602 468.1L573.602 529.877L630.045 529.877L630.045 468.1L573.602 468.1Z" stroke="#2B69FA" stroke-width="0.5" stroke-miterlimit="10"/>
<path d="M573.602 406.322L573.602 468.1L630.045 468.1L630.045 406.322L573.602 406.322Z" stroke="#2B69FA" stroke-width="0.5" stroke-miterlimit="10"/>
<path d="M573.602 344.544L573.602 406.322L630.045 406.322L630.045 344.544L573.602 344.544Z" stroke="#2B69FA" stroke-width="0.5" stroke-miterlimit="10"/>
<path d="M573.602 282.796L573.602 344.574L630.045 344.574L630.045 282.796L573.602 282.796Z" stroke="#2B69FA" stroke-width="0.5" stroke-miterlimit="10"/>
<path d="M573.602 221.019L573.602 282.796L630.045 282.796L630.045 221.019L573.602 221.019Z" stroke="#2B69FA" stroke-width="0.5" stroke-miterlimit="10"/>
<path d="M573.602 159.271L573.602 221.048L630.045 221.048L630.045 159.271L573.602 159.271Z" stroke="#2B69FA" stroke-width="0.5" stroke-miterlimit="10"/>
<path d="M573.602 97.493L573.602 159.271L630.045 159.271L630.045 97.493L573.602 97.493Z" stroke="#2B69FA" stroke-width="0.5" stroke-miterlimit="10"/>
<path d="M573.602 35.7449L573.602 97.5226L630.045 97.5226L630.045 35.7449L573.602 35.7449Z" stroke="#2B69FA" stroke-width="0.5" stroke-miterlimit="10"/>
<path d="M573.602 -26.0329L573.602 35.7449L630.045 35.7449L630.045 -26.0329L573.602 -26.0329Z" stroke="#2B69FA" stroke-width="0.5" stroke-miterlimit="10"/>
<path d="M630.016 838.677L630.016 900.455L686.459 900.455L686.459 838.677L630.016 838.677Z" stroke="#2B69FA" stroke-width="0.5" stroke-miterlimit="10"/>
<path d="M630.016 776.899L630.016 838.677L686.459 838.677L686.459 776.899L630.016 776.899Z" stroke="#2B69FA" stroke-width="0.5" stroke-miterlimit="10"/>
<path d="M630.016 715.151L630.016 776.929L686.459 776.929L686.459 715.151L630.016 715.151Z" stroke="#2B69FA" stroke-width="0.5" stroke-miterlimit="10"/>
<path d="M630.02 653.373L630.02 715.151L686.463 715.151L686.463 653.373L630.02 653.373Z" stroke="#2B69FA" stroke-width="0.5" stroke-miterlimit="10"/>
<path d="M630.02 591.625L630.02 653.403L686.463 653.403L686.463 591.625L630.02 591.625Z" stroke="#2B69FA" stroke-width="0.5" stroke-miterlimit="10"/>
<path d="M630.02 529.848L630.02 591.625L686.463 591.625L686.463 529.848L630.02 529.848Z" stroke="#2B69FA" stroke-width="0.5" stroke-miterlimit="10"/>
<path d="M630.02 468.1L630.02 529.877L686.463 529.877L686.463 468.1L630.02 468.1Z" stroke="#2B69FA" stroke-width="0.5" stroke-miterlimit="10"/>
<path d="M630.02 406.322L630.02 468.1L686.463 468.1L686.463 406.322L630.02 406.322Z" stroke="#2B69FA" stroke-width="0.5" stroke-miterlimit="10"/>
<path d="M630.02 344.544L630.02 406.322L686.463 406.322L686.463 344.544L630.02 344.544Z" stroke="#2B69FA" stroke-width="0.5" stroke-miterlimit="10"/>
<path d="M630.02 282.796L630.02 344.574L686.463 344.574L686.463 282.796L630.02 282.796Z" stroke="#2B69FA" stroke-width="0.5" stroke-miterlimit="10"/>
<path d="M630.02 221.019L630.02 282.796L686.463 282.796L686.463 221.019L630.02 221.019Z" stroke="#2B69FA" stroke-width="0.5" stroke-miterlimit="10"/>
<path d="M630.02 159.271L630.02 221.048L686.463 221.048L686.463 159.271L630.02 159.271Z" stroke="#2B69FA" stroke-width="0.5" stroke-miterlimit="10"/>
<path d="M630.02 97.493L630.02 159.271L686.463 159.271L686.463 97.493L630.02 97.493Z" stroke="#2B69FA" stroke-width="0.5" stroke-miterlimit="10"/>
<path d="M630.02 35.7449L630.02 97.5226L686.463 97.5226L686.463 35.7449L630.02 35.7449Z" stroke="#2B69FA" stroke-width="0.5" stroke-miterlimit="10"/>
<path d="M630.02 -26.0329L630.02 35.7449L686.463 35.7449L686.463 -26.0329L630.02 -26.0329Z" stroke="#2B69FA" stroke-width="0.5" stroke-miterlimit="10"/>
<path d="M686.461 838.677L686.461 900.455L742.904 900.455L742.904 838.677L686.461 838.677Z" stroke="#2B69FA" stroke-width="0.5" stroke-miterlimit="10"/>
<path d="M686.461 776.899L686.461 838.677L742.904 838.677L742.904 776.899L686.461 776.899Z" stroke="#2B69FA" stroke-width="0.5" stroke-miterlimit="10"/>
<path d="M686.461 715.151L686.461 776.929L742.904 776.929L742.904 715.151L686.461 715.151Z" stroke="#2B69FA" stroke-width="0.5" stroke-miterlimit="10"/>
<path d="M686.461 653.373L686.461 715.151L742.904 715.151L742.904 653.373L686.461 653.373Z" stroke="#2B69FA" stroke-width="0.5" stroke-miterlimit="10"/>
<path d="M686.461 591.625L686.461 653.403L742.904 653.403L742.904 591.625L686.461 591.625Z" stroke="#2B69FA" stroke-width="0.5" stroke-miterlimit="10"/>
<path d="M686.461 529.848L686.461 591.625L742.904 591.625L742.904 529.848L686.461 529.848Z" stroke="#2B69FA" stroke-width="0.5" stroke-miterlimit="10"/>
<path d="M686.461 468.1L686.461 529.877L742.904 529.877L742.904 468.1L686.461 468.1Z" stroke="#2B69FA" stroke-width="0.5" stroke-miterlimit="10"/>
<path d="M686.461 406.322L686.461 468.1L742.904 468.1L742.904 406.322L686.461 406.322Z" stroke="#2B69FA" stroke-width="0.5" stroke-miterlimit="10"/>
<path d="M686.461 344.544L686.461 406.322L742.904 406.322L742.904 344.544L686.461 344.544Z" stroke="#2B69FA" stroke-width="0.5" stroke-miterlimit="10"/>
<path d="M686.461 282.796L686.461 344.574L742.904 344.574L742.904 282.796L686.461 282.796Z" stroke="#2B69FA" stroke-width="0.5" stroke-miterlimit="10"/>
<path d="M686.461 221.019L686.461 282.796L742.904 282.796L742.904 221.019L686.461 221.019Z" stroke="#2B69FA" stroke-width="0.5" stroke-miterlimit="10"/>
<path d="M686.461 159.271L686.461 221.048L742.904 221.048L742.904 159.271L686.461 159.271Z" stroke="#2B69FA" stroke-width="0.5" stroke-miterlimit="10"/>
<path d="M686.461 97.493L686.461 159.271L742.904 159.271L742.904 97.493L686.461 97.493Z" stroke="#2B69FA" stroke-width="0.5" stroke-miterlimit="10"/>
<path d="M686.461 35.7449L686.461 97.5226L742.904 97.5226L742.904 35.7449L686.461 35.7449Z" stroke="#2B69FA" stroke-width="0.5" stroke-miterlimit="10"/>
<path d="M686.461 -26.0329L686.461 35.7449L742.904 35.7449L742.904 -26.0329L686.461 -26.0329Z" stroke="#2B69FA" stroke-width="0.5" stroke-miterlimit="10"/>
<path d="M742.875 838.677L742.875 900.455L799.318 900.455L799.318 838.677L742.875 838.677Z" stroke="#2B69FA" stroke-width="0.5" stroke-miterlimit="10"/>
<path d="M742.875 776.899L742.875 838.677L799.318 838.677L799.318 776.899L742.875 776.899Z" stroke="#2B69FA" stroke-width="0.5" stroke-miterlimit="10"/>
<path d="M742.875 715.151L742.875 776.929L799.318 776.929L799.318 715.151L742.875 715.151Z" stroke="#2B69FA" stroke-width="0.5" stroke-miterlimit="10"/>
<path d="M742.879 653.373L742.879 715.151L799.322 715.151L799.322 653.373L742.879 653.373Z" stroke="#2B69FA" stroke-width="0.5" stroke-miterlimit="10"/>
<path d="M742.879 591.625L742.879 653.403L799.322 653.403L799.322 591.625L742.879 591.625Z" stroke="#2B69FA" stroke-width="0.5" stroke-miterlimit="10"/>
<path d="M742.879 529.848L742.879 591.625L799.322 591.625L799.322 529.848L742.879 529.848Z" stroke="#2B69FA" stroke-width="0.5" stroke-miterlimit="10"/>
<path d="M742.879 468.1L742.879 529.877L799.322 529.877L799.322 468.1L742.879 468.1Z" stroke="#2B69FA" stroke-width="0.5" stroke-miterlimit="10"/>
<path d="M742.879 406.322L742.879 468.1L799.322 468.1L799.322 406.322L742.879 406.322Z" stroke="#2B69FA" stroke-width="0.5" stroke-miterlimit="10"/>
<path d="M742.879 344.544L742.879 406.322L799.322 406.322L799.322 344.544L742.879 344.544Z" stroke="#2B69FA" stroke-width="0.5" stroke-miterlimit="10"/>
<path d="M742.879 282.796L742.879 344.574L799.322 344.574L799.322 282.796L742.879 282.796Z" stroke="#2B69FA" stroke-width="0.5" stroke-miterlimit="10"/>
<path d="M742.879 221.019L742.879 282.796L799.322 282.796L799.322 221.019L742.879 221.019Z" stroke="#2B69FA" stroke-width="0.5" stroke-miterlimit="10"/>
<path d="M742.879 159.271L742.879 221.048L799.322 221.048L799.322 159.271L742.879 159.271Z" stroke="#2B69FA" stroke-width="0.5" stroke-miterlimit="10"/>
<path d="M742.879 97.493L742.879 159.271L799.322 159.271L799.322 97.493L742.879 97.493Z" stroke="#2B69FA" stroke-width="0.5" stroke-miterlimit="10"/>
<path d="M742.879 35.7449L742.879 97.5226L799.322 97.5226L799.322 35.7449L742.879 35.7449Z" stroke="#2B69FA" stroke-width="0.5" stroke-miterlimit="10"/>
<path d="M742.879 -26.0329L742.879 35.7449L799.322 35.7449L799.322 -26.0329L742.879 -26.0329Z" stroke="#2B69FA" stroke-width="0.5" stroke-miterlimit="10"/>
<path d="M799.316 838.677L799.316 900.455L855.76 900.455L855.76 838.677L799.316 838.677Z" stroke="#2B69FA" stroke-width="0.5" stroke-miterlimit="10"/>
<path d="M799.316 776.899L799.316 838.677L855.76 838.677L855.76 776.899L799.316 776.899Z" stroke="#2B69FA" stroke-width="0.5" stroke-miterlimit="10"/>
<path d="M799.316 715.151L799.316 776.929L855.76 776.929L855.76 715.151L799.316 715.151Z" stroke="#2B69FA" stroke-width="0.5" stroke-miterlimit="10"/>
<path d="M799.32 653.373L799.32 715.151L855.764 715.151L855.764 653.373L799.32 653.373Z" stroke="#2B69FA" stroke-width="0.5" stroke-miterlimit="10"/>
<path d="M799.32 591.625L799.32 653.403L855.764 653.403L855.764 591.625L799.32 591.625Z" stroke="#2B69FA" stroke-width="0.5" stroke-miterlimit="10"/>
<path d="M799.32 529.848L799.32 591.626L855.764 591.626L855.764 529.848L799.32 529.848Z" stroke="#2B69FA" stroke-width="0.5" stroke-miterlimit="10"/>
<path d="M799.32 468.1L799.32 529.877L855.764 529.877L855.764 468.1L799.32 468.1Z" stroke="#2B69FA" stroke-width="0.5" stroke-miterlimit="10"/>
<path d="M799.32 406.322L799.32 468.1L855.764 468.1L855.764 406.322L799.32 406.322Z" stroke="#2B69FA" stroke-width="0.5" stroke-miterlimit="10"/>
<path d="M799.32 344.544L799.32 406.322L855.764 406.322L855.764 344.544L799.32 344.544Z" stroke="#2B69FA" stroke-width="0.5" stroke-miterlimit="10"/>
<path d="M799.32 282.796L799.32 344.574L855.764 344.574L855.764 282.796L799.32 282.796Z" stroke="#2B69FA" stroke-width="0.5" stroke-miterlimit="10"/>
<path d="M799.32 221.019L799.32 282.796L855.764 282.796L855.764 221.019L799.32 221.019Z" stroke="#2B69FA" stroke-width="0.5" stroke-miterlimit="10"/>
<path d="M799.32 159.271L799.32 221.048L855.764 221.048L855.764 159.271L799.32 159.271Z" stroke="#2B69FA" stroke-width="0.5" stroke-miterlimit="10"/>
<path d="M799.32 97.493L799.32 159.271L855.764 159.271L855.764 97.493L799.32 97.493Z" stroke="#2B69FA" stroke-width="0.5" stroke-miterlimit="10"/>
<path d="M799.32 35.7449L799.32 97.5226L855.764 97.5226L855.764 35.7449L799.32 35.7449Z" stroke="#2B69FA" stroke-width="0.5" stroke-miterlimit="10"/>
<path d="M799.32 -26.0329L799.32 35.7449L855.764 35.7449L855.764 -26.0329L799.32 -26.0329Z" stroke="#2B69FA" stroke-width="0.5" stroke-miterlimit="10"/>
<path d="M855.762 838.677L855.762 900.455L912.205 900.455L912.205 838.677L855.762 838.677Z" stroke="#2B69FA" stroke-width="0.5" stroke-miterlimit="10"/>
<path d="M855.762 776.899L855.762 838.677L912.205 838.677L912.205 776.899L855.762 776.899Z" stroke="#2B69FA" stroke-width="0.5" stroke-miterlimit="10"/>
<path d="M855.762 715.151L855.762 776.929L912.205 776.929L912.205 715.151L855.762 715.151Z" stroke="#2B69FA" stroke-width="0.5" stroke-miterlimit="10"/>
<path d="M855.766 653.373L855.766 715.151L912.209 715.151L912.209 653.373L855.766 653.373Z" stroke="#2B69FA" stroke-width="0.5" stroke-miterlimit="10"/>
<path d="M855.766 591.625L855.766 653.403L912.209 653.403L912.209 591.625L855.766 591.625Z" stroke="#2B69FA" stroke-width="0.5" stroke-miterlimit="10"/>
<path d="M855.766 529.848L855.766 591.626L912.209 591.626L912.209 529.848L855.766 529.848Z" stroke="#2B69FA" stroke-width="0.5" stroke-miterlimit="10"/>
<path d="M855.766 468.1L855.766 529.877L912.209 529.877L912.209 468.1L855.766 468.1Z" stroke="#2B69FA" stroke-width="0.5" stroke-miterlimit="10"/>
<path d="M855.766 406.322L855.766 468.1L912.209 468.1L912.209 406.322L855.766 406.322Z" stroke="#2B69FA" stroke-width="0.5" stroke-miterlimit="10"/>
<path d="M855.766 344.544L855.766 406.322L912.209 406.322L912.209 344.544L855.766 344.544Z" stroke="#2B69FA" stroke-width="0.5" stroke-miterlimit="10"/>
<path d="M855.766 282.796L855.766 344.574L912.209 344.574L912.209 282.796L855.766 282.796Z" stroke="#2B69FA" stroke-width="0.5" stroke-miterlimit="10"/>
<path d="M855.766 221.019L855.766 282.796L912.209 282.796L912.209 221.019L855.766 221.019Z" stroke="#2B69FA" stroke-width="0.5" stroke-miterlimit="10"/>
<path d="M855.766 159.271L855.766 221.048L912.209 221.048L912.209 159.271L855.766 159.271Z" stroke="#2B69FA" stroke-width="0.5" stroke-miterlimit="10"/>
<path d="M855.766 97.493L855.766 159.271L912.209 159.271L912.209 97.493L855.766 97.493Z" stroke="#2B69FA" stroke-width="0.5" stroke-miterlimit="10"/>
<path d="M855.766 35.7449L855.766 97.5226L912.209 97.5226L912.209 35.7449L855.766 35.7449Z" stroke="#2B69FA" stroke-width="0.5" stroke-miterlimit="10"/>
<path d="M855.766 -26.0329L855.766 35.7449L912.209 35.7449L912.209 -26.0329L855.766 -26.0329Z" stroke="#2B69FA" stroke-width="0.5" stroke-miterlimit="10"/>
<path d="M912.176 838.677L912.176 900.455L968.619 900.455L968.619 838.677L912.176 838.677Z" stroke="#2B69FA" stroke-width="0.5" stroke-miterlimit="10"/>
<path d="M912.176 776.899L912.176 838.677L968.619 838.677L968.619 776.899L912.176 776.899Z" stroke="#2B69FA" stroke-width="0.5" stroke-miterlimit="10"/>
<path d="M912.176 715.151L912.176 776.929L968.619 776.929L968.619 715.151L912.176 715.151Z" stroke="#2B69FA" stroke-width="0.5" stroke-miterlimit="10"/>
<path d="M912.176 653.373L912.176 715.151L968.619 715.151L968.619 653.373L912.176 653.373Z" stroke="#2B69FA" stroke-width="0.5" stroke-miterlimit="10"/>
<path d="M912.176 591.625L912.176 653.403L968.619 653.403L968.619 591.625L912.176 591.625Z" stroke="#2B69FA" stroke-width="0.5" stroke-miterlimit="10"/>
<path d="M912.176 529.848L912.176 591.625L968.619 591.625L968.619 529.848L912.176 529.848Z" stroke="#2B69FA" stroke-width="0.5" stroke-miterlimit="10"/>
<path d="M912.176 468.1L912.176 529.877L968.619 529.877L968.619 468.1L912.176 468.1Z" stroke="#2B69FA" stroke-width="0.5" stroke-miterlimit="10"/>
<path d="M912.176 406.322L912.176 468.1L968.619 468.1L968.619 406.322L912.176 406.322Z" stroke="#2B69FA" stroke-width="0.5" stroke-miterlimit="10"/>
<path d="M912.176 344.544L912.176 406.322L968.619 406.322L968.619 344.544L912.176 344.544Z" stroke="#2B69FA" stroke-width="0.5" stroke-miterlimit="10"/>
<path d="M912.176 282.796L912.176 344.574L968.619 344.574L968.619 282.796L912.176 282.796Z" stroke="#2B69FA" stroke-width="0.5" stroke-miterlimit="10"/>
<path d="M912.176 221.019L912.176 282.796L968.619 282.796L968.619 221.019L912.176 221.019Z" stroke="#2B69FA" stroke-width="0.5" stroke-miterlimit="10"/>
<path d="M912.176 159.271L912.176 221.048L968.619 221.048L968.619 159.271L912.176 159.271Z" stroke="#2B69FA" stroke-width="0.5" stroke-miterlimit="10"/>
<path d="M912.176 97.493L912.176 159.271L968.619 159.271L968.619 97.493L912.176 97.493Z" stroke="#2B69FA" stroke-width="0.5" stroke-miterlimit="10"/>
<path d="M912.176 35.7449L912.176 97.5226L968.619 97.5226L968.619 35.7449L912.176 35.7449Z" stroke="#2B69FA" stroke-width="0.5" stroke-miterlimit="10"/>
<path d="M912.176 -26.0329L912.176 35.7449L968.619 35.7449L968.619 -26.0329L912.176 -26.0329Z" stroke="#2B69FA" stroke-width="0.5" stroke-miterlimit="10"/>
<path d="M968.621 838.677L968.621 900.455L1025.06 900.455L1025.06 838.677L968.621 838.677Z" stroke="#2B69FA" stroke-width="0.5" stroke-miterlimit="10"/>
<path d="M968.621 776.899L968.621 838.677L1025.06 838.677L1025.06 776.899L968.621 776.899Z" stroke="#2B69FA" stroke-width="0.5" stroke-miterlimit="10"/>
<path d="M968.621 715.151L968.621 776.929L1025.06 776.929L1025.06 715.151L968.621 715.151Z" stroke="#2B69FA" stroke-width="0.5" stroke-miterlimit="10"/>
<path d="M968.621 653.373L968.621 715.151L1025.06 715.151L1025.06 653.373L968.621 653.373Z" stroke="#2B69FA" stroke-width="0.5" stroke-miterlimit="10"/>
<path d="M968.621 591.625L968.621 653.403L1025.06 653.403L1025.06 591.625L968.621 591.625Z" stroke="#2B69FA" stroke-width="0.5" stroke-miterlimit="10"/>
<path d="M968.621 529.848L968.621 591.625L1025.06 591.625L1025.06 529.848L968.621 529.848Z" stroke="#2B69FA" stroke-width="0.5" stroke-miterlimit="10"/>
<path d="M968.621 468.1L968.621 529.877L1025.06 529.877L1025.06 468.1L968.621 468.1Z" stroke="#2B69FA" stroke-width="0.5" stroke-miterlimit="10"/>
<path d="M968.621 406.322L968.621 468.1L1025.06 468.1L1025.06 406.322L968.621 406.322Z" stroke="#2B69FA" stroke-width="0.5" stroke-miterlimit="10"/>
<path d="M968.621 344.544L968.621 406.322L1025.06 406.322L1025.06 344.544L968.621 344.544Z" stroke="#2B69FA" stroke-width="0.5" stroke-miterlimit="10"/>
<path d="M968.621 282.796L968.621 344.574L1025.06 344.574L1025.06 282.796L968.621 282.796Z" stroke="#2B69FA" stroke-width="0.5" stroke-miterlimit="10"/>
<path d="M968.621 221.019L968.621 282.796L1025.06 282.796L1025.06 221.019L968.621 221.019Z" stroke="#2B69FA" stroke-width="0.5" stroke-miterlimit="10"/>
<path d="M968.621 159.271L968.621 221.048L1025.06 221.048L1025.06 159.271L968.621 159.271Z" stroke="#2B69FA" stroke-width="0.5" stroke-miterlimit="10"/>
<path d="M968.621 97.493L968.621 159.271L1025.06 159.271L1025.06 97.493L968.621 97.493Z" stroke="#2B69FA" stroke-width="0.5" stroke-miterlimit="10"/>
<path d="M968.621 35.745L968.621 97.5228L1025.06 97.5228L1025.06 35.745L968.621 35.745Z" stroke="#2B69FA" stroke-width="0.5" stroke-miterlimit="10"/>
<path d="M968.621 -26.0329L968.621 35.7449L1025.06 35.7449L1025.06 -26.0329L968.621 -26.0329Z" stroke="#2B69FA" stroke-width="0.5" stroke-miterlimit="10"/>
<path d="M1025.04 838.677L1025.04 900.455L1081.48 900.455L1081.48 838.677L1025.04 838.677Z" stroke="#2B69FA" stroke-width="0.5" stroke-miterlimit="10"/>
<path d="M1025.04 776.899L1025.04 838.677L1081.48 838.677L1081.48 776.899L1025.04 776.899Z" stroke="#2B69FA" stroke-width="0.5" stroke-miterlimit="10"/>
<path d="M1025.04 715.151L1025.04 776.929L1081.48 776.929L1081.48 715.151L1025.04 715.151Z" stroke="#2B69FA" stroke-width="0.5" stroke-miterlimit="10"/>
<path d="M1025.04 653.373L1025.04 715.151L1081.48 715.151L1081.48 653.373L1025.04 653.373Z" stroke="#2B69FA" stroke-width="0.5" stroke-miterlimit="10"/>
<path d="M1025.04 591.625L1025.04 653.403L1081.48 653.403L1081.48 591.625L1025.04 591.625Z" stroke="#2B69FA" stroke-width="0.5" stroke-miterlimit="10"/>
<path d="M1025.04 529.848L1025.04 591.625L1081.48 591.625L1081.48 529.848L1025.04 529.848Z" stroke="#2B69FA" stroke-width="0.5" stroke-miterlimit="10"/>
<path d="M1025.04 468.1L1025.04 529.877L1081.48 529.877L1081.48 468.1L1025.04 468.1Z" stroke="#2B69FA" stroke-width="0.5" stroke-miterlimit="10"/>
<path d="M1025.04 406.322L1025.04 468.1L1081.48 468.1L1081.48 406.322L1025.04 406.322Z" stroke="#2B69FA" stroke-width="0.5" stroke-miterlimit="10"/>
<path d="M1025.04 344.544L1025.04 406.322L1081.48 406.322L1081.48 344.544L1025.04 344.544Z" stroke="#2B69FA" stroke-width="0.5" stroke-miterlimit="10"/>
<path d="M1025.04 282.796L1025.04 344.574L1081.48 344.574L1081.48 282.796L1025.04 282.796Z" stroke="#2B69FA" stroke-width="0.5" stroke-miterlimit="10"/>
<path d="M1025.04 221.019L1025.04 282.796L1081.48 282.796L1081.48 221.019L1025.04 221.019Z" stroke="#2B69FA" stroke-width="0.5" stroke-miterlimit="10"/>
<path d="M1025.04 159.271L1025.04 221.048L1081.48 221.048L1081.48 159.271L1025.04 159.271Z" stroke="#2B69FA" stroke-width="0.5" stroke-miterlimit="10"/>
<path d="M1025.04 97.493L1025.04 159.271L1081.48 159.271L1081.48 97.493L1025.04 97.493Z" stroke="#2B69FA" stroke-width="0.5" stroke-miterlimit="10"/>
<path d="M1025.04 35.745L1025.04 97.5228L1081.48 97.5228L1081.48 35.745L1025.04 35.745Z" stroke="#2B69FA" stroke-width="0.5" stroke-miterlimit="10"/>
<path d="M1025.04 -26.0329L1025.04 35.7449L1081.48 35.7449L1081.48 -26.0329L1025.04 -26.0329Z" stroke="#2B69FA" stroke-width="0.5" stroke-miterlimit="10"/>
<path d="M1081.48 838.677L1081.48 900.455L1137.92 900.455L1137.92 838.677L1081.48 838.677Z" stroke="#2B69FA" stroke-width="0.5" stroke-miterlimit="10"/>
<path d="M1081.48 776.899L1081.48 838.677L1137.92 838.677L1137.92 776.899L1081.48 776.899Z" stroke="#2B69FA" stroke-width="0.5" stroke-miterlimit="10"/>
<path d="M1081.48 715.151L1081.48 776.929L1137.92 776.929L1137.92 715.151L1081.48 715.151Z" stroke="#2B69FA" stroke-width="0.5" stroke-miterlimit="10"/>
<path d="M1081.48 653.373L1081.48 715.151L1137.92 715.151L1137.92 653.373L1081.48 653.373Z" stroke="#2B69FA" stroke-width="0.5" stroke-miterlimit="10"/>
<path d="M1081.48 591.625L1081.48 653.403L1137.92 653.403L1137.92 591.625L1081.48 591.625Z" stroke="#2B69FA" stroke-width="0.5" stroke-miterlimit="10"/>
<path d="M1081.48 529.848L1081.48 591.625L1137.92 591.625L1137.92 529.848L1081.48 529.848Z" stroke="#2B69FA" stroke-width="0.5" stroke-miterlimit="10"/>
<path d="M1081.48 468.1L1081.48 529.877L1137.92 529.877L1137.92 468.1L1081.48 468.1Z" stroke="#2B69FA" stroke-width="0.5" stroke-miterlimit="10"/>
<path d="M1081.48 406.322L1081.48 468.1L1137.92 468.1L1137.92 406.322L1081.48 406.322Z" stroke="#2B69FA" stroke-width="0.5" stroke-miterlimit="10"/>
<path d="M1081.48 344.544L1081.48 406.322L1137.92 406.322L1137.92 344.544L1081.48 344.544Z" stroke="#2B69FA" stroke-width="0.5" stroke-miterlimit="10"/>
<path d="M1081.48 282.796L1081.48 344.574L1137.92 344.574L1137.92 282.796L1081.48 282.796Z" stroke="#2B69FA" stroke-width="0.5" stroke-miterlimit="10"/>
<path d="M1081.48 221.019L1081.48 282.796L1137.92 282.796L1137.92 221.019L1081.48 221.019Z" stroke="#2B69FA" stroke-width="0.5" stroke-miterlimit="10"/>
<path d="M1081.48 159.271L1081.48 221.049L1137.92 221.049L1137.92 159.271L1081.48 159.271Z" stroke="#2B69FA" stroke-width="0.5" stroke-miterlimit="10"/>
<path d="M1081.48 97.493L1081.48 159.271L1137.92 159.271L1137.92 97.493L1081.48 97.493Z" stroke="#2B69FA" stroke-width="0.5" stroke-miterlimit="10"/>
<path d="M1081.48 35.745L1081.48 97.5228L1137.92 97.5228L1137.92 35.745L1081.48 35.745Z" stroke="#2B69FA" stroke-width="0.5" stroke-miterlimit="10"/>
<path d="M1081.48 -26.0329L1081.48 35.7449L1137.92 35.7449L1137.92 -26.0329L1081.48 -26.0329Z" stroke="#2B69FA" stroke-width="0.5" stroke-miterlimit="10"/>
<path d="M1137.9 838.677L1137.9 900.455L1194.34 900.455L1194.34 838.677L1137.9 838.677Z" stroke="#2B69FA" stroke-width="0.5" stroke-miterlimit="10"/>
<path d="M1137.9 776.899L1137.9 838.677L1194.34 838.677L1194.34 776.899L1137.9 776.899Z" stroke="#2B69FA" stroke-width="0.5" stroke-miterlimit="10"/>
<path d="M1137.9 715.151L1137.9 776.929L1194.34 776.929L1194.34 715.151L1137.9 715.151Z" stroke="#2B69FA" stroke-width="0.5" stroke-miterlimit="10"/>
<path d="M1137.9 653.373L1137.9 715.151L1194.34 715.151L1194.34 653.373L1137.9 653.373Z" stroke="#2B69FA" stroke-width="0.5" stroke-miterlimit="10"/>
<path d="M1137.9 591.625L1137.9 653.403L1194.34 653.403L1194.34 591.625L1137.9 591.625Z" stroke="#2B69FA" stroke-width="0.5" stroke-miterlimit="10"/>
<path d="M1137.9 529.848L1137.9 591.625L1194.34 591.625L1194.34 529.848L1137.9 529.848Z" stroke="#2B69FA" stroke-width="0.5" stroke-miterlimit="10"/>
<path d="M1137.9 468.1L1137.9 529.877L1194.34 529.877L1194.34 468.1L1137.9 468.1Z" stroke="#2B69FA" stroke-width="0.5" stroke-miterlimit="10"/>
<path d="M1137.9 406.322L1137.9 468.1L1194.34 468.1L1194.34 406.322L1137.9 406.322Z" stroke="#2B69FA" stroke-width="0.5" stroke-miterlimit="10"/>
<path d="M1137.9 344.544L1137.9 406.322L1194.34 406.322L1194.34 344.544L1137.9 344.544Z" stroke="#2B69FA" stroke-width="0.5" stroke-miterlimit="10"/>
<path d="M1137.9 282.796L1137.9 344.574L1194.34 344.574L1194.34 282.796L1137.9 282.796Z" stroke="#2B69FA" stroke-width="0.5" stroke-miterlimit="10"/>
<path d="M1137.9 221.019L1137.9 282.796L1194.34 282.796L1194.34 221.019L1137.9 221.019Z" stroke="#2B69FA" stroke-width="0.5" stroke-miterlimit="10"/>
<path d="M1137.9 159.271L1137.9 221.049L1194.34 221.049L1194.34 159.271L1137.9 159.271Z" stroke="#2B69FA" stroke-width="0.5" stroke-miterlimit="10"/>
<path d="M1137.9 97.493L1137.9 159.271L1194.34 159.271L1194.34 97.493L1137.9 97.493Z" stroke="#2B69FA" stroke-width="0.5" stroke-miterlimit="10"/>
<path d="M1137.9 35.745L1137.9 97.5228L1194.34 97.5228L1194.34 35.745L1137.9 35.745Z" stroke="#2B69FA" stroke-width="0.5" stroke-miterlimit="10"/>
<path d="M1137.9 -26.0329L1137.9 35.7449L1194.34 35.7449L1194.34 -26.0329L1137.9 -26.0329Z" stroke="#2B69FA" stroke-width="0.5" stroke-miterlimit="10"/>
<path d="M1194.34 838.677L1194.34 900.455L1250.78 900.455L1250.78 838.677L1194.34 838.677Z" stroke="#2B69FA" stroke-width="0.5" stroke-miterlimit="10"/>
<path d="M1194.34 776.899L1194.34 838.677L1250.78 838.677L1250.78 776.899L1194.34 776.899Z" stroke="#2B69FA" stroke-width="0.5" stroke-miterlimit="10"/>
<path d="M1194.34 715.151L1194.34 776.929L1250.78 776.929L1250.78 715.151L1194.34 715.151Z" stroke="#2B69FA" stroke-width="0.5" stroke-miterlimit="10"/>
<path d="M1194.34 653.373L1194.34 715.151L1250.78 715.151L1250.78 653.373L1194.34 653.373Z" stroke="#2B69FA" stroke-width="0.5" stroke-miterlimit="10"/>
<path d="M1194.34 591.625L1194.34 653.403L1250.78 653.403L1250.78 591.625L1194.34 591.625Z" stroke="#2B69FA" stroke-width="0.5" stroke-miterlimit="10"/>
<path d="M1194.34 529.848L1194.34 591.625L1250.78 591.625L1250.78 529.848L1194.34 529.848Z" stroke="#2B69FA" stroke-width="0.5" stroke-miterlimit="10"/>
<path d="M1194.34 468.1L1194.34 529.877L1250.78 529.877L1250.78 468.1L1194.34 468.1Z" stroke="#2B69FA" stroke-width="0.5" stroke-miterlimit="10"/>
<path d="M1194.34 406.322L1194.34 468.1L1250.78 468.1L1250.78 406.322L1194.34 406.322Z" stroke="#2B69FA" stroke-width="0.5" stroke-miterlimit="10"/>
<path d="M1194.34 344.544L1194.34 406.322L1250.78 406.322L1250.78 344.544L1194.34 344.544Z" stroke="#2B69FA" stroke-width="0.5" stroke-miterlimit="10"/>
<path d="M1194.34 282.796L1194.34 344.574L1250.78 344.574L1250.78 282.796L1194.34 282.796Z" stroke="#2B69FA" stroke-width="0.5" stroke-miterlimit="10"/>
<path d="M1194.34 221.019L1194.34 282.796L1250.78 282.796L1250.78 221.019L1194.34 221.019Z" stroke="#2B69FA" stroke-width="0.5" stroke-miterlimit="10"/>
<path d="M1194.34 159.271L1194.34 221.049L1250.78 221.049L1250.78 159.271L1194.34 159.271Z" stroke="#2B69FA" stroke-width="0.5" stroke-miterlimit="10"/>
<path d="M1194.34 97.493L1194.34 159.271L1250.78 159.271L1250.78 97.493L1194.34 97.493Z" stroke="#2B69FA" stroke-width="0.5" stroke-miterlimit="10"/>
<path d="M1194.34 35.745L1194.34 97.5228L1250.78 97.5228L1250.78 35.745L1194.34 35.745Z" stroke="#2B69FA" stroke-width="0.5" stroke-miterlimit="10"/>
<path d="M1194.34 -26.0329L1194.34 35.7449L1250.78 35.7449L1250.78 -26.0329L1194.34 -26.0329Z" stroke="#2B69FA" stroke-width="0.5" stroke-miterlimit="10"/>
<path d="M1250.76 838.677L1250.76 900.455L1307.2 900.455L1307.2 838.677L1250.76 838.677Z" stroke="#2B69FA" stroke-width="0.5" stroke-miterlimit="10"/>
<path d="M1250.76 776.899L1250.76 838.677L1307.2 838.677L1307.2 776.899L1250.76 776.899Z" stroke="#2B69FA" stroke-width="0.5" stroke-miterlimit="10"/>
<path d="M1250.76 715.151L1250.76 776.929L1307.2 776.929L1307.2 715.151L1250.76 715.151Z" stroke="#2B69FA" stroke-width="0.5" stroke-miterlimit="10"/>
<path d="M1250.76 653.373L1250.76 715.151L1307.2 715.151L1307.2 653.373L1250.76 653.373Z" stroke="#2B69FA" stroke-width="0.5" stroke-miterlimit="10"/>
<path d="M1250.76 591.625L1250.76 653.403L1307.2 653.403L1307.2 591.625L1250.76 591.625Z" stroke="#2B69FA" stroke-width="0.5" stroke-miterlimit="10"/>
<path d="M1250.76 529.848L1250.76 591.625L1307.2 591.625L1307.2 529.848L1250.76 529.848Z" stroke="#2B69FA" stroke-width="0.5" stroke-miterlimit="10"/>
<path d="M1250.76 468.1L1250.76 529.877L1307.2 529.877L1307.2 468.1L1250.76 468.1Z" stroke="#2B69FA" stroke-width="0.5" stroke-miterlimit="10"/>
<path d="M1250.76 406.322L1250.76 468.1L1307.2 468.1L1307.2 406.322L1250.76 406.322Z" stroke="#2B69FA" stroke-width="0.5" stroke-miterlimit="10"/>
<path d="M1250.76 344.544L1250.76 406.322L1307.2 406.322L1307.2 344.544L1250.76 344.544Z" stroke="#2B69FA" stroke-width="0.5" stroke-miterlimit="10"/>
<path d="M1250.76 282.796L1250.76 344.574L1307.2 344.574L1307.2 282.796L1250.76 282.796Z" stroke="#2B69FA" stroke-width="0.5" stroke-miterlimit="10"/>
<path d="M1250.76 221.019L1250.76 282.796L1307.2 282.796L1307.2 221.019L1250.76 221.019Z" stroke="#2B69FA" stroke-width="0.5" stroke-miterlimit="10"/>
<path d="M1250.76 159.271L1250.76 221.048L1307.2 221.048L1307.2 159.271L1250.76 159.271Z" stroke="#2B69FA" stroke-width="0.5" stroke-miterlimit="10"/>
<path d="M1250.76 97.4929L1250.76 159.271L1307.2 159.271L1307.2 97.4929L1250.76 97.4929Z" stroke="#2B69FA" stroke-width="0.5" stroke-miterlimit="10"/>
<path d="M1250.76 35.745L1250.76 97.5228L1307.2 97.5228L1307.2 35.745L1250.76 35.745Z" stroke="#2B69FA" stroke-width="0.5" stroke-miterlimit="10"/>
<path d="M1250.76 -26.0329L1250.76 35.7449L1307.2 35.7449L1307.2 -26.0329L1250.76 -26.0329Z" stroke="#2B69FA" stroke-width="0.5" stroke-miterlimit="10"/>
<path d="M1307.2 838.677L1307.2 900.455L1363.64 900.455L1363.64 838.677L1307.2 838.677Z" stroke="#2B69FA" stroke-width="0.5" stroke-miterlimit="10"/>
<path d="M1307.2 776.899L1307.2 838.677L1363.64 838.677L1363.64 776.899L1307.2 776.899Z" stroke="#2B69FA" stroke-width="0.5" stroke-miterlimit="10"/>
<path d="M1307.2 715.151L1307.2 776.929L1363.64 776.929L1363.64 715.151L1307.2 715.151Z" stroke="#2B69FA" stroke-width="0.5" stroke-miterlimit="10"/>
<path d="M1307.2 653.373L1307.2 715.151L1363.64 715.151L1363.64 653.373L1307.2 653.373Z" stroke="#2B69FA" stroke-width="0.5" stroke-miterlimit="10"/>
<path d="M1307.2 591.625L1307.2 653.403L1363.64 653.403L1363.64 591.625L1307.2 591.625Z" stroke="#2B69FA" stroke-width="0.5" stroke-miterlimit="10"/>
<path d="M1307.2 529.848L1307.2 591.625L1363.64 591.625L1363.64 529.848L1307.2 529.848Z" stroke="#2B69FA" stroke-width="0.5" stroke-miterlimit="10"/>
<path d="M1307.2 468.1L1307.2 529.877L1363.64 529.877L1363.64 468.1L1307.2 468.1Z" stroke="#2B69FA" stroke-width="0.5" stroke-miterlimit="10"/>
<path d="M1307.2 406.322L1307.2 468.1L1363.64 468.1L1363.64 406.322L1307.2 406.322Z" stroke="#2B69FA" stroke-width="0.5" stroke-miterlimit="10"/>
<path d="M1307.2 344.544L1307.2 406.322L1363.64 406.322L1363.64 344.544L1307.2 344.544Z" stroke="#2B69FA" stroke-width="0.5" stroke-miterlimit="10"/>
<path d="M1307.2 282.796L1307.2 344.574L1363.64 344.574L1363.64 282.796L1307.2 282.796Z" stroke="#2B69FA" stroke-width="0.5" stroke-miterlimit="10"/>
<path d="M1307.2 221.019L1307.2 282.796L1363.64 282.796L1363.64 221.019L1307.2 221.019Z" stroke="#2B69FA" stroke-width="0.5" stroke-miterlimit="10"/>
<path d="M1307.2 159.271L1307.2 221.048L1363.64 221.048L1363.64 159.271L1307.2 159.271Z" stroke="#2B69FA" stroke-width="0.5" stroke-miterlimit="10"/>
<path d="M1307.2 97.4928L1307.2 159.271L1363.64 159.271L1363.64 97.4928L1307.2 97.4928Z" stroke="#2B69FA" stroke-width="0.5" stroke-miterlimit="10"/>
<path d="M1307.2 35.745L1307.2 97.5228L1363.64 97.5228L1363.64 35.745L1307.2 35.745Z" stroke="#2B69FA" stroke-width="0.5" stroke-miterlimit="10"/>
<path d="M1307.2 -26.0329L1307.2 35.7449L1363.64 35.7449L1363.64 -26.0329L1307.2 -26.0329Z" stroke="#2B69FA" stroke-width="0.5" stroke-miterlimit="10"/>
<path d="M1363.62 838.677L1363.62 900.455L1420.06 900.455L1420.06 838.677L1363.62 838.677Z" stroke="#2B69FA" stroke-width="0.5" stroke-miterlimit="10"/>
<path d="M1363.62 776.899L1363.62 838.677L1420.06 838.677L1420.06 776.899L1363.62 776.899Z" stroke="#2B69FA" stroke-width="0.5" stroke-miterlimit="10"/>
<path d="M1363.62 715.151L1363.62 776.929L1420.06 776.929L1420.06 715.151L1363.62 715.151Z" stroke="#2B69FA" stroke-width="0.5" stroke-miterlimit="10"/>
<path d="M1363.62 653.373L1363.62 715.151L1420.06 715.151L1420.06 653.373L1363.62 653.373Z" stroke="#2B69FA" stroke-width="0.5" stroke-miterlimit="10"/>
<path d="M1363.62 591.625L1363.62 653.403L1420.06 653.403L1420.06 591.625L1363.62 591.625Z" stroke="#2B69FA" stroke-width="0.5" stroke-miterlimit="10"/>
<path d="M1363.62 529.848L1363.62 591.625L1420.06 591.625L1420.06 529.848L1363.62 529.848Z" stroke="#2B69FA" stroke-width="0.5" stroke-miterlimit="10"/>
<path d="M1363.62 468.1L1363.62 529.877L1420.06 529.877L1420.06 468.1L1363.62 468.1Z" stroke="#2B69FA" stroke-width="0.5" stroke-miterlimit="10"/>
<path d="M1363.62 406.322L1363.62 468.1L1420.06 468.1L1420.06 406.322L1363.62 406.322Z" stroke="#2B69FA" stroke-width="0.5" stroke-miterlimit="10"/>
<path d="M1363.62 344.544L1363.62 406.322L1420.06 406.322L1420.06 344.544L1363.62 344.544Z" stroke="#2B69FA" stroke-width="0.5" stroke-miterlimit="10"/>
<path d="M1363.62 282.796L1363.62 344.574L1420.06 344.574L1420.06 282.796L1363.62 282.796Z" stroke="#2B69FA" stroke-width="0.5" stroke-miterlimit="10"/>
<path d="M1363.62 221.019L1363.62 282.796L1420.06 282.796L1420.06 221.019L1363.62 221.019Z" stroke="#2B69FA" stroke-width="0.5" stroke-miterlimit="10"/>
<path d="M1363.62 159.271L1363.62 221.048L1420.06 221.048L1420.06 159.271L1363.62 159.271Z" stroke="#2B69FA" stroke-width="0.5" stroke-miterlimit="10"/>
<path d="M1363.62 97.4928L1363.62 159.271L1420.06 159.271L1420.06 97.4928L1363.62 97.4928Z" stroke="#2B69FA" stroke-width="0.5" stroke-miterlimit="10"/>
<path d="M1363.62 35.745L1363.62 97.5228L1420.06 97.5228L1420.06 35.745L1363.62 35.745Z" stroke="#2B69FA" stroke-width="0.5" stroke-miterlimit="10"/>
<path d="M1363.62 -26.0329L1363.62 35.7449L1420.06 35.7449L1420.06 -26.0329L1363.62 -26.0329Z" stroke="#2B69FA" stroke-width="0.5" stroke-miterlimit="10"/>
<path d="M1420.06 838.677L1420.06 900.455L1476.51 900.455L1476.51 838.677L1420.06 838.677Z" stroke="#2B69FA" stroke-width="0.5" stroke-miterlimit="10"/>
<path d="M1420.06 776.899L1420.06 838.677L1476.51 838.677L1476.51 776.899L1420.06 776.899Z" stroke="#2B69FA" stroke-width="0.5" stroke-miterlimit="10"/>
<path d="M1420.06 715.151L1420.06 776.929L1476.51 776.929L1476.51 715.151L1420.06 715.151Z" stroke="#2B69FA" stroke-width="0.5" stroke-miterlimit="10"/>
<path d="M1420.06 653.373L1420.06 715.151L1476.51 715.151L1476.51 653.373L1420.06 653.373Z" stroke="#2B69FA" stroke-width="0.5" stroke-miterlimit="10"/>
<path d="M1420.06 591.625L1420.06 653.403L1476.51 653.403L1476.51 591.625L1420.06 591.625Z" stroke="#2B69FA" stroke-width="0.5" stroke-miterlimit="10"/>
<path d="M1420.06 529.848L1420.06 591.625L1476.51 591.625L1476.51 529.848L1420.06 529.848Z" stroke="#2B69FA" stroke-width="0.5" stroke-miterlimit="10"/>
<path d="M1420.06 468.1L1420.06 529.877L1476.51 529.877L1476.51 468.1L1420.06 468.1Z" stroke="#2B69FA" stroke-width="0.5" stroke-miterlimit="10"/>
<path d="M1420.06 406.322L1420.06 468.1L1476.51 468.1L1476.51 406.322L1420.06 406.322Z" stroke="#2B69FA" stroke-width="0.5" stroke-miterlimit="10"/>
<path d="M1420.06 344.544L1420.06 406.322L1476.51 406.322L1476.51 344.544L1420.06 344.544Z" stroke="#2B69FA" stroke-width="0.5" stroke-miterlimit="10"/>
<path d="M1420.06 282.796L1420.06 344.574L1476.51 344.574L1476.51 282.796L1420.06 282.796Z" stroke="#2B69FA" stroke-width="0.5" stroke-miterlimit="10"/>
<path d="M1420.06 221.019L1420.06 282.796L1476.51 282.796L1476.51 221.019L1420.06 221.019Z" stroke="#2B69FA" stroke-width="0.5" stroke-miterlimit="10"/>
<path d="M1420.06 159.271L1420.06 221.048L1476.51 221.048L1476.51 159.271L1420.06 159.271Z" stroke="#2B69FA" stroke-width="0.5" stroke-miterlimit="10"/>
<path d="M1420.06 97.4928L1420.06 159.271L1476.51 159.271L1476.51 97.4928L1420.06 97.4928Z" stroke="#2B69FA" stroke-width="0.5" stroke-miterlimit="10"/>
<path d="M1420.06 35.745L1420.06 97.5228L1476.51 97.5228L1476.51 35.745L1420.06 35.745Z" stroke="#2B69FA" stroke-width="0.5" stroke-miterlimit="10"/>
<path d="M1420.06 -26.0329L1420.06 35.7449L1476.51 35.7449L1476.51 -26.0329L1420.06 -26.0329Z" stroke="#2B69FA" stroke-width="0.5" stroke-miterlimit="10"/>
<path d="M1476.48 838.677L1476.48 900.455L1532.92 900.455L1532.92 838.677L1476.48 838.677Z" stroke="#2B69FA" stroke-width="0.5" stroke-miterlimit="10"/>
<path d="M1476.48 776.899L1476.48 838.677L1532.92 838.677L1532.92 776.899L1476.48 776.899Z" stroke="#2B69FA" stroke-width="0.5" stroke-miterlimit="10"/>
<path d="M1476.48 715.151L1476.48 776.929L1532.92 776.929L1532.92 715.151L1476.48 715.151Z" stroke="#2B69FA" stroke-width="0.5" stroke-miterlimit="10"/>
<path d="M1476.48 653.373L1476.48 715.151L1532.92 715.151L1532.92 653.373L1476.48 653.373Z" stroke="#2B69FA" stroke-width="0.5" stroke-miterlimit="10"/>
<path d="M1476.48 591.625L1476.48 653.403L1532.92 653.403L1532.92 591.625L1476.48 591.625Z" stroke="#2B69FA" stroke-width="0.5" stroke-miterlimit="10"/>
<path d="M1476.48 529.848L1476.48 591.625L1532.92 591.625L1532.92 529.848L1476.48 529.848Z" stroke="#2B69FA" stroke-width="0.5" stroke-miterlimit="10"/>
<path d="M1476.48 468.1L1476.48 529.877L1532.92 529.877L1532.92 468.1L1476.48 468.1Z" stroke="#2B69FA" stroke-width="0.5" stroke-miterlimit="10"/>
<path d="M1476.48 406.322L1476.48 468.1L1532.92 468.1L1532.92 406.322L1476.48 406.322Z" stroke="#2B69FA" stroke-width="0.5" stroke-miterlimit="10"/>
<path d="M1476.48 344.544L1476.48 406.322L1532.92 406.322L1532.92 344.544L1476.48 344.544Z" stroke="#2B69FA" stroke-width="0.5" stroke-miterlimit="10"/>
<path d="M1476.48 282.796L1476.48 344.574L1532.92 344.574L1532.92 282.796L1476.48 282.796Z" stroke="#2B69FA" stroke-width="0.5" stroke-miterlimit="10"/>
<path d="M1476.48 221.019L1476.48 282.796L1532.92 282.796L1532.92 221.019L1476.48 221.019Z" stroke="#2B69FA" stroke-width="0.5" stroke-miterlimit="10"/>
<path d="M1476.48 159.271L1476.48 221.048L1532.92 221.048L1532.92 159.271L1476.48 159.271Z" stroke="#2B69FA" stroke-width="0.5" stroke-miterlimit="10"/>
<path d="M1476.48 97.4928L1476.48 159.271L1532.92 159.271L1532.92 97.4928L1476.48 97.4928Z" stroke="#2B69FA" stroke-width="0.5" stroke-miterlimit="10"/>
<path d="M1476.48 35.745L1476.48 97.5228L1532.92 97.5228L1532.92 35.745L1476.48 35.745Z" stroke="#2B69FA" stroke-width="0.5" stroke-miterlimit="10"/>
<path d="M1476.48 -26.0329L1476.48 35.7449L1532.92 35.7449L1532.92 -26.0329L1476.48 -26.0329Z" stroke="#2B69FA" stroke-width="0.5" stroke-miterlimit="10"/>
<path d="M1532.92 838.677L1532.92 900.455L1589.37 900.455L1589.37 838.677L1532.92 838.677Z" stroke="#2B69FA" stroke-width="0.5" stroke-miterlimit="10"/>
<path d="M1532.92 776.899L1532.92 838.677L1589.37 838.677L1589.37 776.899L1532.92 776.899Z" stroke="#2B69FA" stroke-width="0.5" stroke-miterlimit="10"/>
<path d="M1532.92 715.151L1532.92 776.929L1589.37 776.929L1589.37 715.151L1532.92 715.151Z" stroke="#2B69FA" stroke-width="0.5" stroke-miterlimit="10"/>
<path d="M1532.92 653.373L1532.92 715.151L1589.37 715.151L1589.37 653.373L1532.92 653.373Z" stroke="#2B69FA" stroke-width="0.5" stroke-miterlimit="10"/>
<path d="M1532.92 591.625L1532.92 653.403L1589.37 653.403L1589.37 591.625L1532.92 591.625Z" stroke="#2B69FA" stroke-width="0.5" stroke-miterlimit="10"/>
<path d="M1532.92 529.848L1532.92 591.625L1589.37 591.625L1589.37 529.848L1532.92 529.848Z" stroke="#2B69FA" stroke-width="0.5" stroke-miterlimit="10"/>
<path d="M1532.92 468.1L1532.92 529.877L1589.37 529.877L1589.37 468.1L1532.92 468.1Z" stroke="#2B69FA" stroke-width="0.5" stroke-miterlimit="10"/>
<path d="M1532.92 406.322L1532.92 468.1L1589.37 468.1L1589.37 406.322L1532.92 406.322Z" stroke="#2B69FA" stroke-width="0.5" stroke-miterlimit="10"/>
<path d="M1532.92 344.544L1532.92 406.322L1589.37 406.322L1589.37 344.544L1532.92 344.544Z" stroke="#2B69FA" stroke-width="0.5" stroke-miterlimit="10"/>
<path d="M1532.92 282.796L1532.92 344.574L1589.37 344.574L1589.37 282.796L1532.92 282.796Z" stroke="#2B69FA" stroke-width="0.5" stroke-miterlimit="10"/>
<path d="M1532.92 221.019L1532.92 282.796L1589.37 282.796L1589.37 221.019L1532.92 221.019Z" stroke="#2B69FA" stroke-width="0.5" stroke-miterlimit="10"/>
<path d="M1532.92 159.271L1532.92 221.048L1589.37 221.048L1589.37 159.271L1532.92 159.271Z" stroke="#2B69FA" stroke-width="0.5" stroke-miterlimit="10"/>
<path d="M1532.92 97.4928L1532.92 159.271L1589.37 159.271L1589.37 97.4928L1532.92 97.4928Z" stroke="#2B69FA" stroke-width="0.5" stroke-miterlimit="10"/>
<path d="M1532.92 35.745L1532.92 97.5228L1589.37 97.5228L1589.37 35.745L1532.92 35.745Z" stroke="#2B69FA" stroke-width="0.5" stroke-miterlimit="10"/>
<path d="M1532.92 -26.0329L1532.92 35.7449L1589.37 35.7449L1589.37 -26.0329L1532.92 -26.0329Z" stroke="#2B69FA" stroke-width="0.5" stroke-miterlimit="10"/>
<path d="M1589.34 838.677L1589.34 900.455L1645.78 900.455L1645.78 838.677L1589.34 838.677Z" stroke="#2B69FA" stroke-width="0.5" stroke-miterlimit="10"/>
<path d="M1589.34 776.899L1589.34 838.677L1645.78 838.677L1645.78 776.899L1589.34 776.899Z" stroke="#2B69FA" stroke-width="0.5" stroke-miterlimit="10"/>
<path d="M1589.34 715.151L1589.34 776.929L1645.78 776.929L1645.78 715.151L1589.34 715.151Z" stroke="#2B69FA" stroke-width="0.5" stroke-miterlimit="10"/>
<path d="M1589.34 653.373L1589.34 715.151L1645.78 715.151L1645.78 653.373L1589.34 653.373Z" stroke="#2B69FA" stroke-width="0.5" stroke-miterlimit="10"/>
<path d="M1589.34 591.625L1589.34 653.403L1645.78 653.403L1645.78 591.625L1589.34 591.625Z" stroke="#2B69FA" stroke-width="0.5" stroke-miterlimit="10"/>
<path d="M1589.34 529.848L1589.34 591.625L1645.78 591.625L1645.78 529.848L1589.34 529.848Z" stroke="#2B69FA" stroke-width="0.5" stroke-miterlimit="10"/>
<path d="M1589.34 468.1L1589.34 529.877L1645.78 529.877L1645.78 468.1L1589.34 468.1Z" stroke="#2B69FA" stroke-width="0.5" stroke-miterlimit="10"/>
<path d="M1589.34 406.322L1589.34 468.1L1645.78 468.1L1645.78 406.322L1589.34 406.322Z" stroke="#2B69FA" stroke-width="0.5" stroke-miterlimit="10"/>
<path d="M1589.34 344.544L1589.34 406.322L1645.78 406.322L1645.78 344.544L1589.34 344.544Z" stroke="#2B69FA" stroke-width="0.5" stroke-miterlimit="10"/>
<path d="M1589.34 282.796L1589.34 344.574L1645.78 344.574L1645.78 282.796L1589.34 282.796Z" stroke="#2B69FA" stroke-width="0.5" stroke-miterlimit="10"/>
<path d="M1589.34 221.019L1589.34 282.796L1645.78 282.796L1645.78 221.019L1589.34 221.019Z" stroke="#2B69FA" stroke-width="0.5" stroke-miterlimit="10"/>
<path d="M1589.34 159.271L1589.34 221.048L1645.78 221.048L1645.78 159.271L1589.34 159.271Z" stroke="#2B69FA" stroke-width="0.5" stroke-miterlimit="10"/>
<path d="M1589.34 97.4928L1589.34 159.271L1645.78 159.271L1645.78 97.4928L1589.34 97.4928Z" stroke="#2B69FA" stroke-width="0.5" stroke-miterlimit="10"/>
<path d="M1589.34 35.745L1589.34 97.5228L1645.78 97.5228L1645.78 35.745L1589.34 35.745Z" stroke="#2B69FA" stroke-width="0.5" stroke-miterlimit="10"/>
<path d="M1589.34 -26.0329L1589.34 35.7449L1645.78 35.7449L1645.78 -26.0329L1589.34 -26.0329Z" stroke="#2B69FA" stroke-width="0.5" stroke-miterlimit="10"/>
</g>
</g>
<g filter="url(#filter0_f_2314_2)">
<ellipse cx="1385.5" cy="579.5" rx="214.5" ry="223.5" fill="#F7117A" fill-opacity="0.6"/>
</g>
<g filter="url(#filter1_f_2314_2)">
<ellipse cx="137" cy="445.5" rx="230" ry="224.5" fill="#56EBFF" fill-opacity="0.7"/>
</g>
</g>
<defs>
<filter id="filter0_f_2314_2" x="671" y="-144" width="1429" height="1447" filterUnits="userSpaceOnUse" color-interpolation-filters="sRGB">
<feFlood flood-opacity="0" result="BackgroundImageFix"/>
<feBlend mode="normal" in="SourceGraphic" in2="BackgroundImageFix" result="shape"/>
<feGaussianBlur stdDeviation="250" result="effect1_foregroundBlur_2314_2"/>
</filter>
<filter id="filter1_f_2314_2" x="-593" y="-279" width="1460" height="1449" filterUnits="userSpaceOnUse" color-interpolation-filters="sRGB">
<feFlood flood-opacity="0" result="BackgroundImageFix"/>
<feBlend mode="normal" in="SourceGraphic" in2="BackgroundImageFix" result="shape"/>
<feGaussianBlur stdDeviation="250" result="effect1_foregroundBlur_2314_2"/>
</filter>
<linearGradient id="paint0_linear_2314_2" x1="800" y1="0" x2="800" y2="900" gradientUnits="userSpaceOnUse">
<stop stop-color="#FAA72B" stop-opacity="0.24"/>
<stop offset="1" stop-color="#2B69FA" stop-opacity="0"/>
</linearGradient>
<clipPath id="clip0_2314_2">
<rect width="1600" height="1000" rx="18" fill="white"/>
</clipPath>
</defs>
</svg>
